<?xml version="1.0" encoding="UTF-8" ?>
<!DOCTYPE svg PUBLIC "-//W3C//DTD SVG 1.1//EN" "http://www.w3.org/Graphics/SVG/1.1/DTD/svg11.dtd">
<svg width="401pt" height="361pt" viewBox="0 0 401 361" version="1.1" xmlns="http://www.w3.org/2000/svg">
<g id="#36456dff">
<path fill="#36456d" stroke="#36456d" stroke-width="0.09375" opacity="1.00" d=" M 134.03 74.93 C 133.57 71.66 137.06 69.68 139.95 70.09 C 168.63 70.31 197.32 69.97 226.00 70.04 C 230.90 70.10 235.81 69.78 240.70 70.29 C 241.31 80.80 240.96 91.36 240.89 101.89 C 205.31 102.06 169.72 102.10 134.14 101.86 C 133.86 92.89 134.02 83.91 134.03 74.93 Z" />
<path fill="#36456d" stroke="#36456d" stroke-width="0.09375" opacity="1.00" d=" M 264.07 71.19 C 268.03 70.80 271.97 70.02 275.97 70.20 C 280.57 70.43 285.35 69.55 289.76 71.18 C 290.50 73.02 291.13 74.93 291.00 76.95 C 290.96 93.97 290.98 111.00 290.89 128.02 C 290.98 129.83 290.58 131.87 288.95 132.92 C 284.07 136.23 278.91 139.14 273.48 141.46 C 270.19 142.92 266.99 144.92 263.30 145.08 C 262.78 134.36 264.34 123.72 264.00 113.00 C 264.05 99.07 263.90 85.13 264.07 71.19 Z" />
<path fill="#36456d" stroke="#36456d" stroke-width="0.09375" opacity="1.00" d=" M 134.40 125.59 C 138.26 125.96 142.10 125.49 145.96 125.35 C 176.30 125.33 206.64 125.35 236.98 125.30 C 238.21 125.54 240.12 124.91 240.81 126.30 C 241.63 134.51 239.92 142.91 241.85 151.02 C 236.78 152.98 231.28 152.97 225.99 153.81 C 220.30 153.98 214.70 155.32 208.99 155.02 C 201.49 154.80 193.94 155.48 186.48 154.45 C 168.44 152.81 150.57 149.03 133.46 143.10 C 134.64 137.32 133.41 131.38 134.40 125.59 Z" />
<path fill="#36456d" stroke="#36456d" stroke-width="0.09375" opacity="1.00" d=" M 30.07 148.07 C 27.97 148.09 29.26 144.15 30.95 145.22 C 30.83 146.22 30.53 147.17 30.07 148.07 Z" />
</g>
<g id="#3f76f3ff">
<path fill="#3f76f3" stroke="#3f76f3" stroke-width="0.09375" opacity="1.00" d=" M 346.31 107.17 C 348.39 106.53 350.59 107.14 352.71 107.23 C 355.64 114.83 354.60 123.09 354.82 131.04 C 354.97 135.41 353.71 139.67 353.84 144.05 C 352.78 153.17 352.37 162.51 349.16 171.22 C 348.99 175.99 346.35 180.10 345.57 184.73 C 344.67 189.03 341.70 192.48 340.56 196.70 C 338.41 201.66 335.88 206.44 332.95 210.99 C 328.18 220.69 320.34 228.32 313.57 236.56 C 310.98 238.10 307.68 239.92 304.70 238.33 C 303.22 237.83 301.77 236.69 302.10 234.95 C 302.56 227.76 307.26 221.89 309.26 215.15 C 310.47 211.09 312.62 207.33 313.24 203.10 C 316.44 191.84 320.98 180.49 320.18 168.58 C 316.89 169.01 315.44 172.25 312.66 173.58 C 305.20 177.76 298.39 183.13 290.45 186.43 C 276.86 193.58 261.66 196.65 246.75 199.71 C 241.62 201.13 236.24 200.89 231.04 201.94 C 225.75 203.06 220.30 202.67 214.99 203.67 C 208.71 202.45 202.29 203.30 195.95 202.83 C 186.53 201.95 177.02 201.44 167.80 199.20 C 160.97 198.89 154.32 197.16 147.80 195.19 C 141.36 194.97 135.43 192.16 129.20 190.77 C 123.79 189.62 118.73 187.38 113.63 185.35 C 108.42 185.03 103.72 182.65 98.78 181.21 C 93.50 181.02 89.02 177.76 83.78 177.20 C 77.06 176.92 70.77 174.01 64.03 173.89 C 60.27 173.79 56.81 171.82 53.02 171.99 C 47.99 172.28 43.15 170.47 38.11 170.96 C 35.59 165.87 32.73 160.74 32.10 154.98 C 31.87 152.55 30.43 150.46 30.07 148.07 C 30.53 147.17 30.83 146.22 30.95 145.22 C 39.75 144.95 48.55 145.36 57.23 146.78 C 67.91 147.48 78.64 149.06 88.88 152.13 C 95.23 153.05 101.23 155.41 107.54 156.49 C 113.85 159.26 120.79 160.16 127.12 162.88 C 132.74 165.04 138.94 165.08 144.46 167.58 C 150.14 168.75 155.75 170.26 161.39 171.62 C 171.23 173.24 181.05 175.02 190.96 176.02 C 201.31 176.12 211.65 176.11 222.00 176.05 C 228.05 176.33 233.87 174.33 239.87 173.89 C 243.23 173.28 246.67 173.05 249.91 171.92 C 254.02 170.47 258.46 170.23 262.49 168.51 C 266.83 167.46 270.62 164.92 275.01 164.00 C 280.90 161.91 286.33 158.71 291.90 155.89 C 293.93 154.14 296.25 152.79 298.69 151.69 C 301.62 150.47 303.44 147.63 306.36 146.36 C 310.82 144.01 314.20 140.20 318.22 137.24 C 324.52 131.86 329.88 125.49 335.60 119.55 C 336.66 117.43 337.72 115.12 339.86 113.87 C 342.58 112.22 344.00 109.25 346.31 107.17 Z" />
<path fill="#3f76f3" stroke="#3f76f3" stroke-width="0.09375" opacity="1.00" d=" M 48.03 193.23 C 51.77 191.59 55.86 192.71 59.72 193.23 C 63.16 194.21 66.78 193.95 70.26 194.75 C 74.88 195.18 79.24 197.03 83.90 197.15 C 89.04 197.88 93.81 200.12 98.90 201.10 C 100.78 201.31 102.21 202.74 104.09 202.97 C 110.37 204.17 115.99 207.52 122.23 208.86 C 127.47 209.77 132.42 211.90 137.72 212.59 C 141.65 213.45 145.63 214.21 149.41 215.64 C 153.51 217.04 157.89 217.11 162.11 217.93 C 170.47 218.46 178.64 220.58 186.98 221.11 C 192.77 220.86 198.40 222.44 204.18 222.37 C 214.61 221.82 225.17 222.92 235.44 220.54 C 244.53 220.25 253.32 217.73 262.29 216.37 C 265.79 216.00 268.81 214.01 272.24 213.37 C 276.86 212.84 280.84 209.65 285.63 210.11 C 288.68 212.26 289.74 215.89 288.28 219.37 C 285.17 226.95 282.49 234.87 277.38 241.41 C 273.64 247.21 268.93 252.25 264.59 257.58 C 260.47 261.10 256.45 264.73 252.47 268.41 C 247.14 271.78 241.89 275.32 236.31 278.27 C 232.35 280.46 227.91 281.60 224.09 284.05 C 217.57 286.71 210.52 287.72 203.76 289.63 C 192.26 291.16 180.51 293.06 168.94 291.10 C 164.63 290.82 160.22 291.26 156.04 289.94 C 150.11 288.29 143.73 288.49 138.06 285.92 C 135.56 284.79 132.71 284.85 130.21 283.70 C 124.59 281.06 118.70 278.89 113.48 275.51 C 109.17 272.10 104.29 269.47 100.18 265.80 C 96.69 263.33 93.91 260.04 90.52 257.45 C 87.10 254.30 84.73 250.23 82.76 246.07 C 84.63 246.22 86.61 245.96 88.40 246.63 C 91.75 248.32 95.61 248.49 99.06 249.93 C 102.26 251.30 105.84 250.91 109.10 252.01 C 115.35 253.96 121.73 255.45 128.09 256.97 C 136.89 257.88 145.11 261.70 153.97 262.20 C 156.77 262.36 159.43 263.30 162.17 263.84 C 175.55 264.49 189.09 264.11 202.19 261.21 C 206.65 259.27 211.69 259.51 215.94 257.05 C 220.89 255.60 225.19 252.75 229.56 250.11 C 229.13 249.59 228.28 248.54 227.86 248.02 C 222.68 249.36 217.29 248.66 212.01 248.95 C 206.28 248.81 200.45 249.46 194.80 248.20 C 191.61 247.80 188.36 248.14 185.17 247.66 C 179.62 246.75 173.89 247.20 168.46 245.53 C 161.31 244.51 154.22 243.06 147.10 241.84 C 140.53 240.78 134.27 238.44 127.76 237.13 C 122.12 236.26 117.17 233.00 111.48 232.41 C 107.58 230.78 103.29 230.33 99.51 228.41 C 97.41 227.63 95.06 227.89 93.03 226.88 C 87.04 224.19 80.34 223.95 74.19 221.78 C 71.06 220.57 67.66 221.09 64.41 220.63 C 61.64 218.94 60.60 215.72 58.86 213.17 C 56.85 209.83 54.15 206.87 52.88 203.13 C 52.13 201.02 49.89 200.06 48.55 198.38 C 47.66 196.80 48.00 194.95 48.03 193.23 Z" />
</g>
</svg>
