<?xml version="1.0" encoding="UTF-8" ?>
<!DOCTYPE svg PUBLIC "-//W3C//DTD SVG 1.1//EN" "http://www.w3.org/Graphics/SVG/1.1/DTD/svg11.dtd">
<svg width="300pt" height="206pt" viewBox="0 0 300 206" version="1.1" xmlns="http://www.w3.org/2000/svg">
<g id="#36456dff">
<path fill="#36456d" stroke="#36456d" stroke-width="0.09375" opacity="1.00" d=" M 87.66 36.54 C 93.41 37.67 99.22 36.39 105.01 36.68 C 134.27 36.64 163.53 36.64 192.79 36.48 C 193.76 42.71 193.13 49.02 193.33 55.29 C 173.23 55.47 153.12 55.24 133.01 55.36 C 123.89 55.77 114.77 55.50 105.65 55.63 C 105.68 60.02 105.64 64.40 105.67 68.79 C 142.41 68.90 179.15 68.75 215.89 68.50 C 216.30 74.65 216.16 80.83 215.85 86.99 C 198.57 87.36 181.28 87.07 164.01 87.06 C 153.69 86.50 143.36 86.80 133.05 87.07 C 123.92 87.12 114.78 87.08 105.65 87.15 C 105.66 91.71 105.61 96.27 105.62 100.83 C 133.41 100.86 161.21 100.86 189.00 100.82 C 190.19 100.80 191.38 100.91 192.55 101.15 C 192.70 107.01 192.55 112.87 192.61 118.73 C 173.75 118.85 154.88 118.76 136.01 118.78 C 133.97 118.88 131.97 119.28 129.94 119.46 C 118.61 117.52 106.61 120.64 95.64 116.40 C 89.79 114.30 88.09 107.55 87.75 102.00 C 87.08 86.34 87.69 70.67 87.45 55.00 C 87.50 48.85 87.23 42.68 87.66 36.54 Z" />
<path fill="#36456d" stroke="#36456d" stroke-width="0.09375" opacity="1.00" d=" M 207.73 55.29 C 207.90 49.03 207.14 42.69 208.27 36.50 C 230.66 36.90 253.06 36.59 275.45 36.52 C 275.65 42.79 275.62 49.07 275.47 55.34 C 252.89 55.32 230.31 55.40 207.73 55.29 Z" />
<path fill="#36456d" stroke="#36456d" stroke-width="0.09375" opacity="1.00" d=" M 229.87 86.70 C 229.95 80.72 229.55 74.73 230.21 68.77 C 245.31 68.82 260.42 68.85 275.53 68.75 C 275.64 74.88 275.67 81.02 275.49 87.16 C 260.29 87.04 245.05 87.60 229.87 86.70 Z" />
<path fill="#36456d" stroke="#36456d" stroke-width="0.09375" opacity="1.00" d=" M 206.81 101.36 C 218.93 100.76 231.07 101.27 243.20 101.08 C 243.17 106.96 243.21 112.84 243.15 118.73 C 231.15 118.78 219.15 118.84 207.16 118.73 C 206.96 112.94 207.31 107.14 206.81 101.36 Z" />
<path fill="#36456d" stroke="#36456d" stroke-width="0.09375" opacity="1.00" d=" M 257.29 101.34 C 263.41 101.59 269.53 101.38 275.65 101.29 C 275.70 107.12 275.62 112.95 275.64 118.78 C 269.50 118.67 263.35 119.47 257.22 118.74 C 257.33 112.94 257.24 107.14 257.29 101.34 Z" />
</g>
<g id="#3f76f3ff">
<path fill="#3f76f3" stroke="#3f76f3" stroke-width="0.09375" opacity="1.00" d=" M 23.14 37.43 C 39.98 37.42 56.82 37.46 73.66 37.41 C 73.55 58.28 73.64 79.14 73.62 100.01 C 73.95 109.04 75.26 119.22 82.34 125.64 C 89.04 132.34 99.05 132.92 107.95 133.50 C 115.80 133.60 123.66 133.56 131.51 133.50 C 131.89 139.46 131.78 145.44 131.66 151.40 C 122.44 151.50 113.21 151.21 103.99 151.67 C 91.39 151.97 78.33 147.84 69.50 138.55 C 59.78 129.46 55.81 115.88 55.47 102.90 C 55.17 87.03 55.48 71.16 55.38 55.28 C 50.67 55.40 45.95 55.13 41.24 55.41 C 40.60 56.81 40.98 58.47 40.86 59.97 C 40.94 74.32 40.89 88.67 40.90 103.02 C 41.16 112.40 42.46 121.96 46.60 130.49 C 52.93 143.41 63.55 154.48 76.97 160.02 C 85.45 163.81 94.72 165.61 103.99 165.62 C 134.68 165.95 165.36 165.67 196.05 165.64 C 202.56 165.84 208.74 163.39 214.87 161.51 C 220.33 159.14 225.75 156.17 229.51 151.42 C 224.09 150.21 218.53 151.09 213.06 151.19 C 200.88 151.33 188.70 151.42 176.52 151.45 C 176.59 145.42 176.55 139.39 176.55 133.36 C 190.02 133.01 203.51 133.39 216.99 133.28 C 232.29 133.40 247.60 132.96 262.89 133.50 C 259.14 142.87 254.86 152.36 247.68 159.64 C 242.93 165.32 237.06 169.92 230.77 173.78 C 221.57 179.70 210.71 182.29 199.98 183.63 C 192.74 185.04 185.35 184.02 178.04 184.35 C 152.36 184.27 126.67 184.79 101.00 184.22 C 99.69 183.79 98.35 183.53 96.99 183.43 C 70.22 181.93 44.41 166.09 31.99 142.16 C 27.49 133.41 23.99 123.94 23.26 114.05 C 22.07 98.73 22.87 83.35 22.69 68.00 C 22.38 57.79 23.59 47.63 23.14 37.43 Z" />
<path fill="#3f76f3" stroke="#3f76f3" stroke-width="0.09375" opacity="1.00" d=" M 149.46 133.66 C 153.74 131.75 159.52 132.86 161.95 137.12 C 165.44 142.65 161.52 150.96 155.01 151.65 C 148.51 152.71 142.94 145.11 145.16 139.15 C 145.82 136.88 147.29 134.72 149.46 133.66 Z" />
</g>
</svg>
